<svg width="280" height="139" fill="none" xmlns="http://www.w3.org/2000/svg"><path d="M4.816 123.141h6.047V126H1.371v-17.062h3.445v14.203zm16.852-4.524h-5.367v4.524h6.351V126h-9.797v-17.062h9.774v2.871H16.3v4.031h5.367v2.777zm14.262-6.808h-4.22V126h-3.456v-14.191h-4.149v-2.871H35.93v2.871zm8.718 10.699H39.95L39.035 126h-3.644l5.332-17.062h3.152L49.242 126h-3.68l-.914-3.492zm-3.949-2.871h3.188l-1.594-6.082-1.594 6.082zM59.977 126H56.53v-17.062h3.446V126zm14.824 0h-3.445l-5.04-11.191V126h-3.445v-17.062h3.445l5.051 11.203v-11.203h3.434V126zm8.32-4.688l2.871-12.374h3.844L84.914 126h-3.586l-4.887-17.062h3.82l2.86 12.374zm17.133-2.695h-5.367v4.524h6.351V126h-9.797v-17.062h9.774v2.871h-6.328v4.031h5.367v2.777zm10.184 2.906c0-.695-.18-1.218-.54-1.57-.351-.359-.996-.73-1.933-1.113-1.711-.649-2.942-1.406-3.692-2.274-.75-.875-1.125-1.906-1.125-3.093 0-1.438.508-2.59 1.524-3.457 1.023-.875 2.32-1.313 3.89-1.313 1.047 0 1.981.223 2.801.668a4.525 4.525 0 0 1 1.887 1.863c.445.805.668 1.719.668 2.743h-3.434c0-.797-.172-1.403-.515-1.817-.336-.422-.824-.633-1.465-.633-.602 0-1.07.18-1.406.539-.336.352-.504.829-.504 1.43 0 .469.187.895.562 1.277.375.375 1.039.766 1.992 1.172 1.664.602 2.872 1.34 3.622 2.215.757.875 1.136 1.988 1.136 3.34 0 1.484-.472 2.645-1.418 3.48-.945.836-2.23 1.254-3.855 1.254-1.102 0-2.106-.226-3.012-.679a5.14 5.14 0 0 1-2.133-1.946c-.508-.843-.761-1.839-.761-2.988h3.457c0 .984.191 1.699.574 2.145.383.445 1.008.668 1.875.668 1.203 0 1.805-.637 1.805-1.911zm16.804-9.714h-4.219V126h-3.457v-14.191h-4.148v-2.871h11.824v2.871zm6.481-2.871l3.222 12.339 3.211-12.339h4.5V126h-3.457v-4.617l.317-7.113-3.411 11.73h-2.343l-3.41-11.73.316 7.113V126h-3.445v-17.062h4.5zm22.523 9.679h-5.367v4.524h6.351V126h-9.796v-17.062h9.773v2.871h-6.328v4.031h5.367v2.777zM171.152 126h-3.445l-5.039-11.191V126h-3.445v-17.062h3.445l5.051 11.203v-11.203h3.433V126zm13.465-14.191h-4.219V126h-3.457v-14.191h-4.148v-2.871h11.824v2.871zm14.016 9.714c0-.695-.18-1.218-.539-1.57-.352-.359-.996-.73-1.934-1.113-1.711-.649-2.941-1.406-3.691-2.274-.75-.875-1.125-1.906-1.125-3.093 0-1.438.508-2.59 1.523-3.457 1.024-.875 2.321-1.313 3.891-1.313 1.047 0 1.98.223 2.801.668a4.523 4.523 0 0 1 1.886 1.863c.446.805.668 1.719.668 2.743h-3.433c0-.797-.172-1.403-.516-1.817-.336-.422-.824-.633-1.465-.633-.601 0-1.07.18-1.406.539-.336.352-.504.829-.504 1.43 0 .469.188.895.563 1.277.375.375 1.039.766 1.992 1.172 1.664.602 2.871 1.34 3.621 2.215.758.875 1.137 1.988 1.137 3.34 0 1.484-.473 2.645-1.418 3.48-.946.836-2.231 1.254-3.856 1.254-1.101 0-2.105-.226-3.012-.679a5.131 5.131 0 0 1-2.132-1.946c-.508-.843-.762-1.839-.762-2.988h3.457c0 .984.191 1.699.574 2.145.383.445 1.008.668 1.875.668 1.203 0 1.805-.637 1.805-1.911zm14.566-2.906h-5.367v4.524h6.352V126h-9.797v-17.062h9.773v2.871h-6.328v4.031h5.367v2.777zm8.145 1.149h-1.711V126h-3.445v-17.062h5.496c1.726 0 3.058.449 3.996 1.347.945.891 1.418 2.16 1.418 3.809 0 2.265-.825 3.851-2.473 4.758l2.988 6.984V126h-3.703l-2.566-6.234zm-1.711-2.871h1.957c.687 0 1.203-.227 1.547-.68.343-.461.515-1.074.515-1.84 0-1.711-.668-2.566-2.004-2.566h-2.015v5.086zm15.152 4.417l2.871-12.374h3.844L236.578 126h-3.586l-4.887-17.062h3.821l2.859 12.374zM246.703 126h-3.445v-17.062h3.445V126zm14.461-5.684c-.086 1.946-.633 3.418-1.641 4.418-1.007 1-2.429 1.5-4.265 1.5-1.93 0-3.41-.632-4.442-1.898-1.023-1.274-1.535-3.086-1.535-5.438v-2.871c0-2.343.531-4.148 1.594-5.414 1.063-1.273 2.539-1.91 4.43-1.91 1.859 0 3.269.52 4.23 1.559.969 1.039 1.52 2.531 1.653 4.476h-3.458c-.031-1.203-.218-2.031-.562-2.484-.336-.461-.957-.692-1.863-.692-.922 0-1.575.325-1.957.973-.383.641-.586 1.699-.61 3.176v3.223c0 1.695.188 2.859.563 3.492.383.633 1.035.949 1.957.949.906 0 1.531-.219 1.875-.656.344-.446.539-1.246.586-2.403h3.445zm10.934-1.699h-5.368v4.524h6.352V126h-9.797v-17.062h9.774v2.871h-6.329v4.031h5.368v2.777z" fill="#FFFBFB"/><path d="M131.094 0s11.378 33.414-22.186 62.58c0 0 60.87 28.317 75.092-1.982 0 0-22.471 13.875-59.163-4.248 0 0 29.581-31.715 6.257-56.35zM83.991 62.863s19.171-10.647 24.917-8.212l-5.006 6.513-19.91 1.699z" fill="#fff"/><path d="M82 69.093s19.342-1.416 36.124 7.362c0 0 33.052 17.613 48.07 2.266 0 0-19.171 4.36-46.364-8.212-8.135-3.795-29.297-8.212-37.83-1.416z" fill="#fff"/></svg>